<svg width="81" height="81" viewBox="0 0 81 81" fill="none" xmlns="http://www.w3.org/2000/svg">
<path d="M57.375 60.75C56.4799 60.75 55.6214 60.3945 54.9885 59.7615C54.3556 59.1286 54 58.2702 54 57.375C54 56.4799 54.3556 55.6215 54.9885 54.9886C55.6214 54.3556 56.4799 54 57.375 54C62.9572 54 67.5 49.4573 67.5 43.875C67.5 38.2928 62.9572 33.75 57.375 33.75C56.5717 33.75 55.701 33.8918 54.6311 34.1922L51.0165 35.208L50.3887 31.5023C49.8716 28.3584 48.2537 25.5006 45.8241 23.4394C43.3944 21.3782 40.3112 20.2478 37.125 20.25C35.1224 20.2531 33.1454 20.7011 31.3371 21.5616C29.5288 22.4222 27.9343 23.6738 26.6689 25.226C25.4035 26.7782 24.4988 28.5922 24.0203 30.5368C23.5417 32.4815 23.5012 34.5081 23.9017 36.4703L24.7792 40.6553L19.9327 40.4798C16.524 40.5 13.5 43.5274 13.5 47.25C13.5 50.9727 16.524 54 20.25 54C21.1451 54 22.0035 54.3556 22.6365 54.9886C23.2694 55.6215 23.625 56.4799 23.625 57.375C23.625 58.2702 23.2694 59.1286 22.6365 59.7615C22.0035 60.3945 21.1451 60.75 20.25 60.75C12.8081 60.75 6.75 54.6953 6.75 47.25C6.75368 44.2567 7.75036 41.3492 9.58387 38.9831C11.4174 36.617 13.9841 34.9261 16.8817 34.1753L16.875 33.75C16.875 22.5822 25.9571 13.5 37.125 13.5C41.3181 13.4928 45.4088 14.7945 48.8266 17.2237C52.2444 19.6529 54.8187 23.0883 56.1904 27.0507C66.0622 26.2373 74.25 34.1787 74.25 43.875C74.25 53.1799 66.6799 60.75 57.375 60.75ZM42.6566 47.25L27.4691 60.9222L37.5941 65.8125L32.5316 77.6251L47.7191 63.9563L37.5941 59.0625L42.6566 47.25Z" fill="black"/>
</svg>
