<svg width="81" height="81" viewBox="0 0 81 81" fill="none" xmlns="http://www.w3.org/2000/svg">
<path d="M13.5 33.75C12.6049 33.75 11.7465 33.3944 11.1135 32.7615C10.4806 32.1285 10.125 31.2701 10.125 30.375C10.125 29.4799 10.4806 28.6214 11.1135 27.9885C11.7465 27.3556 12.6049 27 13.5 27H40.5C42.2902 27 44.0071 26.2888 45.273 25.023C46.5388 23.7571 47.25 22.0402 47.25 20.25C47.25 18.4598 46.5388 16.7429 45.273 15.477C44.0071 14.2112 42.2902 13.5 40.5 13.5C38.6438 13.5 36.9563 14.2425 35.7413 15.4912C35.4341 15.819 35.063 16.0803 34.6508 16.2589C34.2386 16.4376 33.7942 16.5297 33.345 16.5297C32.8958 16.5297 32.4514 16.4376 32.0392 16.2589C31.627 16.0803 31.2559 15.819 30.9488 15.4912C29.6325 14.175 29.6325 12.015 30.9488 10.6987C33.4125 8.26875 36.7875 6.75 40.5 6.75C44.0804 6.75 47.5142 8.17232 50.046 10.7041C52.5777 13.2358 54 16.6696 54 20.25C54 23.8304 52.5777 27.2642 50.046 29.7959C47.5142 32.3277 44.0804 33.75 40.5 33.75H13.5ZM64.125 40.5C65.0201 40.5 65.8786 40.1444 66.5115 39.5115C67.1444 38.8785 67.5 38.0201 67.5 37.125C67.5 36.2299 67.1444 35.3714 66.5115 34.7385C65.8786 34.1056 65.0201 33.75 64.125 33.75C63.18 33.75 62.3363 34.1212 61.7288 34.7287C61.4165 35.0416 61.0457 35.2898 60.6374 35.4592C60.2291 35.6286 59.7914 35.7157 59.3494 35.7157C58.9074 35.7157 58.4697 35.6286 58.0614 35.4592C57.6531 35.2898 57.2822 35.0416 56.97 34.7287C55.6875 33.4125 55.6875 31.2862 56.97 29.97C58.7925 28.1475 61.3238 27 64.125 27C66.8103 27 69.3857 28.0667 71.2845 29.9655C73.1833 31.8643 74.25 34.4397 74.25 37.125C74.25 39.8103 73.1833 42.3856 71.2845 44.2844C69.3857 46.1833 66.8103 47.25 64.125 47.25H16.875C15.9799 47.25 15.1215 46.8944 14.4885 46.2615C13.8556 45.6285 13.5 44.7701 13.5 43.875C13.5 42.9799 13.8556 42.1214 14.4885 41.4885C15.1215 40.8556 15.9799 40.5 16.875 40.5H64.125ZM60.75 60.75H13.5C12.6049 60.75 11.7465 60.3944 11.1135 59.7615C10.4806 59.1285 10.125 58.2701 10.125 57.375C10.125 56.4799 10.4806 55.6214 11.1135 54.9885C11.7465 54.3556 12.6049 54 13.5 54H60.75C63.4353 54 66.0107 55.0667 67.9095 56.9655C69.8083 58.8643 70.875 61.4397 70.875 64.125C70.875 66.8103 69.8083 69.3856 67.9095 71.2844C66.0107 73.1832 63.4353 74.25 60.75 74.25C57.9488 74.25 55.4175 73.1025 53.595 71.28C52.3125 69.9637 52.3125 67.8375 53.595 66.5212C53.9072 66.2084 54.2781 65.9601 54.6864 65.7908C55.0947 65.6214 55.5324 65.5342 55.9744 65.5342C56.4164 65.5342 56.8541 65.6214 57.2624 65.7908C57.6707 65.9601 58.0415 66.2084 58.3538 66.5212C58.9613 67.1287 59.805 67.5 60.75 67.5C61.6451 67.5 62.5036 67.1444 63.1365 66.5115C63.7694 65.8785 64.125 65.0201 64.125 64.125C64.125 63.2299 63.7694 62.3714 63.1365 61.7385C62.5036 61.1056 61.6451 60.75 60.75 60.75Z" fill="black"/>
</svg>
