<svg width="81" height="81" viewBox="0 0 81 81" fill="none" xmlns="http://www.w3.org/2000/svg">
<path d="M50.625 74.25C49.7299 74.25 48.8714 73.8944 48.2385 73.2615C47.6056 72.6286 47.25 71.7701 47.25 70.875V50.625C47.25 49.7299 47.6056 48.8715 48.2385 48.2385C48.8714 47.6056 49.7299 47.25 50.625 47.25C51.5201 47.25 52.3785 47.6056 53.0115 48.2385C53.6444 48.8715 54 49.7299 54 50.625V70.875C54 71.7701 53.6444 72.6286 53.0115 73.2615C52.3785 73.8944 51.5201 74.25 50.625 74.25ZM30.375 74.25C29.4799 74.25 28.6214 73.8944 27.9885 73.2615C27.3556 72.6286 27 71.7701 27 70.875V50.625C27 49.7299 27.3556 48.8715 27.9885 48.2385C28.6214 47.6056 29.4799 47.25 30.375 47.25C31.2701 47.25 32.1285 47.6056 32.7615 48.2385C33.3944 48.8715 33.75 49.7299 33.75 50.625V70.875C33.75 71.7701 33.3944 72.6286 32.7615 73.2615C32.1285 73.8944 31.2701 74.25 30.375 74.25ZM40.5 81C39.6049 81 38.7464 80.6444 38.1135 80.0115C37.4806 79.3786 37.125 78.5201 37.125 77.625V57.375C37.125 56.4799 37.4806 55.6215 38.1135 54.9885C38.7464 54.3556 39.6049 54 40.5 54C41.3951 54 42.2535 54.3556 42.8865 54.9885C43.5194 55.6215 43.875 56.4799 43.875 57.375V77.625C43.875 78.5201 43.5194 79.3786 42.8865 80.0115C42.2535 80.6444 41.3951 81 40.5 81ZM20.25 60.75C12.8047 60.75 6.75 54.6953 6.75 47.25C6.75348 44.2571 7.74968 41.3499 9.58254 38.9839C11.4154 36.6179 13.9813 34.9267 16.8784 34.1753L16.875 33.75C16.875 22.5821 25.9571 13.5 37.125 13.5C41.3183 13.4936 45.4091 14.7956 48.8273 17.2246C52.2454 19.6536 54.8206 23.0886 56.1937 27.0506C66.1027 26.2271 74.25 34.182 74.25 43.875C74.244 47.5645 73.0317 51.1508 70.7979 54.0871C68.5641 57.0235 65.4313 59.1489 61.8772 60.1391C61.4456 60.2725 60.9915 60.3178 60.542 60.2723C60.0925 60.2269 59.6567 60.0917 59.2604 59.8748C58.8642 59.6578 58.5155 59.3635 58.2351 59.0093C57.9546 58.655 57.7482 58.2481 57.628 57.8126C57.5077 57.3771 57.4762 56.9219 57.5351 56.474C57.5941 56.0261 57.7424 55.5945 57.9712 55.205C58.2 54.8154 58.5048 54.4758 58.8673 54.2062C59.2298 53.9366 59.6428 53.7425 60.0817 53.6355C62.2131 53.0396 64.0914 51.7634 65.4305 50.0015C66.7697 48.2395 67.4964 46.0881 67.5 43.875C67.5 38.2928 62.9572 33.75 57.375 33.75C56.5582 33.75 55.6909 33.8884 54.6379 34.1888L51.0131 35.2215L50.3887 31.5023C49.8716 28.3583 48.2537 25.5006 45.8241 23.4394C43.3944 21.3782 40.3112 20.2478 37.125 20.25C35.1215 20.2522 33.1435 20.6999 31.3343 21.5607C29.5251 22.4215 27.9299 23.6738 26.6643 25.2269C25.3986 26.7801 24.4942 28.5952 24.0164 30.5409C23.5386 32.4867 23.4994 34.5143 23.9017 36.477L24.7387 40.5338L19.9395 40.4798C16.5274 40.5 13.5 43.5274 13.5 47.25C13.5 50.9726 16.5274 54 20.25 54C21.1451 54 22.0035 54.3556 22.6365 54.9885C23.2694 55.6215 23.625 56.4799 23.625 57.375C23.625 58.2701 23.2694 59.1286 22.6365 59.7615C22.0035 60.3944 21.1451 60.75 20.25 60.75Z" fill="black"/>
</svg>
