<svg width="81" height="81" viewBox="0 0 81 81" fill="none" xmlns="http://www.w3.org/2000/svg">
<path d="M43.875 13.5L40.5 23.4022L37.125 13.5C36.9431 12.9637 36.8915 12.3917 36.9747 11.8315C37.0578 11.2713 37.2733 10.739 37.6032 10.2786C37.9331 9.81831 38.3679 9.44323 38.8717 9.18449C39.3755 8.92574 39.9337 8.79077 40.5 8.79077C41.0664 8.79077 41.6246 8.92574 42.1283 9.18449C42.6321 9.44323 43.067 9.81831 43.3969 10.2786C43.7268 10.739 43.9423 11.2713 44.0254 11.8315C44.1086 12.3917 44.057 12.9637 43.875 13.5ZM13.5 37.125L23.4023 40.5L13.5 43.875C12.9637 44.0569 12.3918 44.1085 11.8316 44.0253C11.2714 43.9422 10.739 43.7267 10.2787 43.3968C9.81838 43.0669 9.4433 42.6321 9.18455 42.1283C8.9258 41.6245 8.79083 41.0663 8.79083 40.5C8.79083 39.9336 8.9258 39.3754 9.18455 38.8717C9.4433 38.3679 9.81838 37.933 10.2787 37.6031C10.739 37.2732 11.2714 37.0577 11.8316 36.9746C12.3918 36.8914 12.9637 36.943 13.5 37.125ZM37.125 67.5L40.5 57.5977L43.875 67.5C44.057 68.0363 44.1086 68.6082 44.0254 69.1684C43.9423 69.7286 43.7268 70.261 43.3969 70.7213C43.067 71.1816 42.6321 71.5567 42.1283 71.8155C41.6246 72.0742 41.0664 72.2092 40.5 72.2092C39.9337 72.2092 39.3755 72.0742 38.8717 71.8155C38.3679 71.5567 37.9331 71.1816 37.6032 70.7213C37.2733 70.261 37.0578 69.7286 36.9747 69.1684C36.8915 68.6082 36.9431 68.0363 37.125 67.5ZM67.5 43.8682L57.5978 40.4932L67.5 37.1182C68.0363 36.9362 68.6083 36.8847 69.1685 36.9678C69.7287 37.051 70.261 37.2664 70.7214 37.5964C71.1817 37.9263 71.5568 38.3611 71.8155 38.8649C72.0743 39.3687 72.2092 39.9269 72.2092 40.4932C72.2092 41.0596 72.0743 41.6177 71.8155 42.1215C71.5568 42.6253 71.1817 43.0602 70.7214 43.3901C70.261 43.72 69.7287 43.9354 69.1685 44.0186C68.6083 44.1017 68.0363 44.0502 67.5 43.8682ZM23.7938 19.0215L28.4074 28.4073L19.0215 23.7937C18.5115 23.5441 18.0684 23.1764 17.729 22.7211C17.3897 22.2658 17.164 21.736 17.0706 21.1759C16.9772 20.6158 17.0189 20.0415 17.1922 19.5007C17.3655 18.96 17.6654 18.4684 18.0669 18.0669C18.4684 17.6653 18.96 17.3654 19.5008 17.1922C20.0415 17.0189 20.6159 16.9772 21.176 17.0705C21.7361 17.1639 22.2658 17.3896 22.7212 17.729C23.1765 18.0683 23.5442 18.5114 23.7938 19.0215V19.0215ZM19.0215 57.2028L28.4074 52.5892L23.7938 61.9751C23.5442 62.4852 23.1765 62.9283 22.7212 63.2676C22.2658 63.6069 21.7361 63.8327 21.176 63.926C20.6159 64.0194 20.0415 63.9777 19.5008 63.8044C18.96 63.6311 18.4684 63.3312 18.0669 62.9297C17.6654 62.5282 17.3655 62.0366 17.1922 61.4958C17.0189 60.9551 16.9772 60.3808 17.0706 59.8206C17.164 59.2605 17.3897 58.7308 17.729 58.2755C18.0684 57.8202 18.5115 57.4524 19.0215 57.2028V57.2028ZM57.2029 61.9751L52.5893 52.5892L61.9752 57.2028C62.4852 57.4524 62.9283 57.8202 63.2677 58.2755C63.607 58.7308 63.8327 59.2605 63.9261 59.8206C64.0194 60.3808 63.9777 60.9551 63.8045 61.4958C63.6312 62.0366 63.3313 62.5282 62.9298 62.9297C62.5282 63.3312 62.0367 63.6311 61.4959 63.8044C60.9551 63.9777 60.3808 64.0194 59.8207 63.926C59.2606 63.8327 58.7308 63.6069 58.2755 63.2676C57.8202 62.9283 57.4525 62.4852 57.2029 61.9751V61.9751ZM61.9718 23.787L52.5825 28.404L57.1995 19.0147C57.4491 18.5047 57.8168 18.0615 58.2722 17.7222C58.7275 17.3829 59.2572 17.1572 59.8173 17.0638C60.3774 16.9704 60.9518 17.0121 61.4925 17.1854C62.0333 17.3587 62.5249 17.6586 62.9264 18.0601C63.3279 18.4616 63.6278 18.9532 63.8011 19.494C63.9744 20.0347 64.0161 20.6091 63.9227 21.1692C63.8293 21.7293 63.6036 22.259 63.2643 22.7143C62.925 23.1697 62.4818 23.5374 61.9718 23.787V23.787ZM40.5 55.6875C32.1267 55.6875 25.3125 48.8733 25.3125 40.5C25.3125 32.1266 32.1267 25.3125 40.5 25.3125C48.8734 25.3125 55.6875 32.1266 55.6875 40.5C55.6875 48.8733 48.8734 55.6875 40.5 55.6875ZM40.5 32.0625C35.8459 32.0625 32.0625 35.8458 32.0625 40.5C32.0625 45.1541 35.8459 48.9375 40.5 48.9375C45.1542 48.9375 48.9375 45.1541 48.9375 40.5C48.9375 35.8458 45.1542 32.0625 40.5 32.0625Z" fill="black"/>
</svg>
