<svg width="104" height="104" viewBox="0 0 104 104" fill="none" xmlns="http://www.w3.org/2000/svg">
<path d="M11.3057 27.1527C12.0987 26.0867 13.143 24.6437 13.9793 23.6123C16.484 20.7697 16.809 20.397 19.0883 18.2953C19.7643 17.7407 20.566 17.0733 21.3503 16.445C15.5653 21.3417 14.8287 26.7627 20.137 30.1123C20.1283 30.1123 20.1283 30.1123 20.1283 30.121C27.5513 34.593 43.8186 33.6267 56.654 27.898C69.0863 22.3513 73.6753 14.417 67.5393 9.70233C62.153 8.69267 55.731 8.57567 48.9363 9.48567L48.23 8.32L48.815 6.38733C52.8103 6.02767 56.6063 6.11433 59.8823 6.67333C60.6753 6.80767 61.7196 7.03733 62.4996 7.202C64.0076 7.57033 64.8266 7.79133 65.8103 8.10767C66.8156 8.40667 67.6736 8.70567 69.1686 9.26033C70.6333 9.83667 71.266 10.0967 72.4403 10.6817C73.7554 11.2817 75.0332 11.9604 76.2666 12.714C86.0426 18.863 79.963 30.082 62.712 37.7693C45.5086 45.4307 23.5863 46.6353 13.7627 40.56C13.7583 40.5513 13.7453 40.5427 13.7193 40.534H13.7367C8.372 37.1367 7.80866 32.2053 11.3057 27.1527V27.1527ZM56.0646 70.1393L55.926 63.232L51.0163 57.772C34.7967 61.4467 18.8543 60.658 9.98833 55.4363C9.958 55.4017 9.88433 55.367 9.854 55.3323C4.836 52.2427 3.59667 48.256 3.97367 43.9227C2.79933 50.2623 2.704 52.5503 2.873 57.9757C3.081 61.373 5.044 64.506 8.99166 66.976L9.022 67.0107C18.473 72.8867 38.1636 74.1607 56.0646 70.1393ZM76.5396 78.0477C53.6466 87.23 24.9947 87.7717 12.5493 79.274C13.8933 82.5585 15.7221 85.623 17.9747 88.3653C29.3973 96.1653 55.6963 95.667 76.7 87.2387C88.9936 82.3117 96.7503 75.7553 98.787 69.6107L99.359 67.7603C100.715 63.0717 100.971 59.1673 101.188 55.692C100.941 63.2363 92.053 71.8163 76.5396 78.0477V78.0477ZM26.0043 95.732C26.7237 96.4167 28.9857 99.1943 40.4473 102.262C43.5456 102.947 51.3456 105.144 65.754 101.95L65.8406 100.637L64.701 98.852C51.3326 102.015 36.4823 100.958 26.0043 95.732V95.732ZM59.085 41.093L71.2573 50.3187C71.2573 50.3187 73.8616 52.195 71.4046 53.5123C68.9563 54.8167 62.6686 58.0103 62.6686 58.0103L56.459 55.692L53.3433 57.0787L58.838 61.8497L58.8813 69.2727L62.1096 67.8383L64.2503 61.568C64.2503 61.568 70.824 59.0373 73.4326 58.084C76.0543 57.1523 75.7033 60.3417 75.7033 60.3417L74.412 75.556L78.702 73.6493L85.7653 53.1223C85.7653 53.1223 89.5093 51.3023 92.144 49.7033C94.7743 48.1043 95.6756 45.4523 95.6756 45.4523C95.6756 45.4523 93.1103 44.3473 90.155 45.2357C87.1996 46.1153 83.3473 47.684 83.3473 47.684L63.362 39.195L59.085 41.093V41.093ZM33.332 11.9037L41.5956 18.486L43.8533 18.148L39.3553 12.2417C39.3553 12.2417 38.376 11.0197 39.6933 10.7293C41.0193 10.4347 44.3733 9.75 44.3733 9.75L46.8953 11.765L48.594 11.5137L46.67 8.45433L47.684 5.06133L46.0416 5.29967L44.096 7.88233C44.096 7.88233 40.6813 8.203 39.338 8.31567C37.986 8.41967 38.5666 6.968 38.5666 6.968L41.158 0L38.8873 0.333667L32.9073 9.03933C32.9073 9.03933 30.914 9.40333 29.471 9.815C28.0237 10.2223 27.261 11.3403 27.261 11.3403C27.261 11.3403 28.3227 12.1983 29.8177 12.168C31.3257 12.1377 33.332 11.9037 33.332 11.9037V11.9037ZM74.1736 96.4817L68.8263 93.6867L67.5956 94.1157L70.7633 96.9497C70.7633 96.9497 71.4393 97.526 70.7286 97.8337C70.018 98.137 68.2066 98.8823 68.2066 98.8823L66.7116 98.215L65.8233 98.5357L67.067 99.8617L66.9456 101.799L67.873 101.478L68.5663 99.905C68.5663 99.905 70.447 99.346 71.1966 99.1467C71.942 98.943 71.773 99.8183 71.773 99.8183L71.0666 104L72.3016 103.571L74.724 98.0417C74.724 98.0417 75.7943 97.6213 76.5613 97.2357C77.3283 96.85 77.6316 96.1393 77.6316 96.1393C77.6316 96.1393 76.9513 95.7667 76.1106 95.953C75.2656 96.1307 74.1736 96.4817 74.1736 96.4817Z" fill="#7FDEFF"/>
</svg>
