<svg width="81" height="81" viewBox="0 0 81 81" fill="none" xmlns="http://www.w3.org/2000/svg">
<path d="M21.9375 64.125C20.7562 64.125 19.7584 63.7166 18.9439 62.8999C18.1271 62.0854 17.7187 61.0875 17.7187 59.9062C17.7187 58.725 18.1271 57.7271 18.9439 56.9126C19.7584 56.0959 20.7562 55.6875 21.9375 55.6875C23.1187 55.6875 24.1177 56.0959 24.9345 56.9126C25.749 57.7271 26.1562 58.725 26.1562 59.9062C26.1562 61.0875 25.749 62.0854 24.9345 62.8999C24.1177 63.7166 23.1187 64.125 21.9375 64.125ZM32.0625 74.25C30.8812 74.25 29.8834 73.8416 29.0689 73.0249C28.2521 72.2104 27.8437 71.2125 27.8437 70.0312C27.8437 68.85 28.2521 67.8521 29.0689 67.0376C29.8834 66.2209 30.8812 65.8125 32.0625 65.8125C33.2437 65.8125 34.2416 66.2209 35.0561 67.0376C35.8729 67.8521 36.2812 68.85 36.2812 70.0312C36.2812 71.2125 35.8729 72.2104 35.0561 73.0249C34.2416 73.8416 33.2437 74.25 32.0625 74.25ZM42.1875 64.125C41.0062 64.125 40.0084 63.7166 39.1939 62.8999C38.3771 62.0854 37.9687 61.0875 37.9687 59.9062C37.9687 58.725 38.3771 57.7271 39.1939 56.9126C40.0084 56.0959 41.0062 55.6875 42.1875 55.6875C43.3687 55.6875 44.3666 56.0959 45.1811 56.9126C45.9979 57.7271 46.4062 58.725 46.4062 59.9062C46.4062 61.0875 45.9979 62.0854 45.1811 62.8999C44.3666 63.7166 43.3687 64.125 42.1875 64.125ZM62.4375 64.125C61.2562 64.125 60.2584 63.7166 59.4439 62.8999C58.6271 62.0854 58.2187 61.0875 58.2187 59.9062C58.2187 58.725 58.6271 57.7271 59.4439 56.9126C60.2584 56.0959 61.2562 55.6875 62.4375 55.6875C63.6187 55.6875 64.6177 56.0959 65.4345 56.9126C66.249 57.7271 66.6562 58.725 66.6562 59.9062C66.6562 61.0875 66.249 62.0854 65.4345 62.8999C64.6177 63.7166 63.6187 64.125 62.4375 64.125ZM52.3125 74.25C51.1312 74.25 50.1334 73.8416 49.3189 73.0249C48.5021 72.2104 48.0937 71.2125 48.0937 70.0312C48.0937 68.85 48.5021 67.8521 49.3189 67.0376C50.1334 66.2209 51.1312 65.8125 52.3125 65.8125C53.4937 65.8125 54.4927 66.2209 55.3095 67.0376C56.124 67.8521 56.5312 68.85 56.5312 70.0312C56.5312 71.2125 56.124 72.2104 55.3095 73.0249C54.4927 73.8416 53.4937 74.25 52.3125 74.25ZM25.3125 50.625C20.1937 50.625 15.8209 48.8104 12.1939 45.1811C8.56462 41.5541 6.75 37.1812 6.75 32.0625C6.75 27.3938 8.29687 23.3156 11.3906 19.8281C14.4844 16.3406 18.3094 14.2875 22.8656 13.6688C24.6656 10.4625 27.1271 7.94475 30.2501 6.1155C33.3709 4.2885 36.7875 3.375 40.5 3.375C45.5625 3.375 49.9635 4.99275 53.703 8.22825C57.4447 11.4615 59.7094 15.4969 60.4969 20.3344C64.3781 20.6719 67.6406 22.275 70.2844 25.1437C72.9281 28.0125 74.25 31.4438 74.25 35.4375C74.25 39.6562 72.774 43.2427 69.822 46.197C66.8677 49.149 63.2812 50.625 59.0625 50.625H25.3125ZM25.3125 43.875H59.0625C61.425 43.875 63.4219 43.0594 65.0531 41.4281C66.6844 39.7969 67.5 37.8 67.5 35.4375C67.5 33.075 66.6844 31.0781 65.0531 29.4469C63.4219 27.8156 61.425 27 59.0625 27H54V23.625C54 19.9125 52.6781 16.7344 50.0344 14.0906C47.3906 11.4469 44.2125 10.125 40.5 10.125C37.8 10.125 35.3385 10.8563 33.1155 12.3188C30.8947 13.7813 29.2219 15.75 28.0969 18.225L27.2531 20.25H25.1437C21.9375 20.3625 19.1959 21.5572 16.9189 23.8342C14.6396 26.1135 13.5 28.8563 13.5 32.0625C13.5 35.325 14.6531 38.1094 16.9594 40.4156C19.2656 42.7219 22.05 43.875 25.3125 43.875Z" fill="black"/>
</svg>
