<svg width="81" height="81" viewBox="0 0 81 81" fill="none" xmlns="http://www.w3.org/2000/svg">
<path d="M48.9375 10.1249L45.5625 20.2499L42.1875 10.1249C42.0114 9.59104 41.9644 9.02299 42.0505 8.46744C42.1366 7.9119 42.3533 7.38469 42.6827 6.92915C43.0121 6.4736 43.4449 6.1027 43.9455 5.84692C44.4462 5.59113 45.0003 5.45776 45.5625 5.45776C46.1247 5.45776 46.6788 5.59113 47.1795 5.84692C47.6801 6.1027 48.1129 6.4736 48.4423 6.92915C48.7717 7.38469 48.9884 7.9119 49.0745 8.46744C49.1605 9.02299 49.1136 9.59104 48.9375 10.1249V10.1249ZM67.041 20.4187L57.4931 25.1943L62.2687 15.6464C62.7107 14.8373 63.4493 14.2311 64.3291 13.9555C65.2089 13.6798 66.1613 13.7562 66.986 14.1685C67.8106 14.5808 68.4432 15.2969 68.7506 16.1662C69.0579 17.0354 69.0161 17.99 68.634 18.829C68.289 19.5173 67.73 20.0751 67.041 20.4187ZM72.5625 40.4999L62.4375 37.1249L72.5625 33.7499C73.0972 33.5718 73.6666 33.5234 74.2237 33.6085C74.7808 33.6936 75.3097 33.9098 75.7668 34.2394C76.224 34.569 76.5963 35.0025 76.8531 35.5042C77.1099 36.0058 77.2438 36.5613 77.2438 37.1249C77.2438 37.6885 77.1099 38.244 76.8531 38.7457C76.5963 39.2474 76.224 39.6808 75.7668 40.0104C75.3097 40.34 74.7808 40.5563 74.2237 40.6414C73.6666 40.7265 73.0972 40.678 72.5625 40.4999V40.4999ZM28.8562 15.6464L33.6319 25.1943L24.084 20.4187C23.5778 20.1675 23.1387 19.7994 22.8029 19.3449C22.4671 18.8904 22.2443 18.3625 22.153 17.8048C22.0616 17.2471 22.1043 16.6758 22.2775 16.1379C22.4507 15.6 22.7494 15.111 23.149 14.7114C23.5486 14.3118 24.0375 14.0131 24.5754 13.8399C25.1133 13.6667 25.6847 13.624 26.2424 13.7154C26.8001 13.8067 27.328 14.0295 27.7825 14.3653C28.237 14.7011 28.6051 15.1402 28.8562 15.6464V15.6464ZM59.994 41.6542C60.4631 40.2232 60.75 38.7145 60.75 37.1249C60.75 28.7515 53.9359 21.9374 45.5625 21.9374C41.04 21.9374 37.0001 23.9422 34.2326 27.0944L33.75 26.9999C30.8992 27.0018 28.0811 27.6076 25.4814 28.7775C22.8816 29.9473 20.5592 31.6547 18.6671 33.787C18.0384 33.5549 17.3568 33.5051 16.701 33.6434C16.0451 33.7817 15.4417 34.1025 14.9602 34.5688C14.4788 35.0351 14.1388 35.628 13.9796 36.279C13.8204 36.9301 13.8483 37.6129 14.0602 38.2488C14.2526 38.8124 14.5935 39.2579 14.9951 39.6359C14.0093 42.0534 13.5016 44.6391 13.5 47.2499L13.5067 47.6752C10.6091 48.4259 8.04238 50.1168 6.20887 52.4829C4.37536 54.849 3.37868 57.7566 3.375 60.7499C3.375 68.1952 9.43312 74.2499 16.875 74.2499H54C63.3049 74.2499 70.875 66.6798 70.875 57.3749C70.875 50.1895 66.339 44.0808 59.994 41.6542V41.6542ZM45.5625 28.6874C50.2166 28.6874 54 32.4708 54 37.1249C54 38.3602 53.676 39.5077 53.1967 40.564C52.002 40.6349 50.7667 40.8138 49.4235 41.1985C48.5556 38.9415 47.2121 36.8978 45.4842 35.206C43.7564 33.5143 41.6847 32.2142 39.4099 31.3942C40.1933 30.5431 41.1443 29.8633 42.2032 29.3975C43.262 28.9316 44.4057 28.6899 45.5625 28.6874ZM54 67.4999H16.875C13.149 67.4999 10.125 64.4725 10.125 60.7499C10.125 57.0273 13.149 53.9999 16.5645 53.9797L21.3637 54.0337L20.5267 49.9769C20.1251 48.0143 20.1647 45.9869 20.6427 44.0414C21.1208 42.0959 22.0253 40.281 23.2908 38.728C24.5563 37.1751 26.1512 35.9228 27.9601 35.0618C29.769 34.2009 31.7467 33.7528 33.75 33.7499L33.9829 33.7027C37.0837 33.7769 40.0651 34.9135 42.4284 36.9223C44.7917 38.9312 46.3937 41.6905 46.9665 44.7389L47.0947 45.3667C47.2945 46.0592 47.7139 46.668 48.2898 47.1014C48.8656 47.5348 49.5668 47.7694 50.2875 47.7697L51.2629 47.692C52.3159 47.3883 53.1832 47.2499 54 47.2499C59.5822 47.2499 64.125 51.7927 64.125 57.3749C64.125 62.9572 59.5822 67.4999 54 67.4999Z" fill="black"/>
</svg>
